<svg xmlns="http://www.w3.org/2000/svg" width="16" height="16" viewBox="0 0 16 16" fill="none">
  <path d="M7.99967 1.33337C4.32367 1.33337 1.33301 4.32404 1.33301 8.00004V10.762C1.33301 11.4447 1.93101 12 2.66634 12H3.33301C3.50982 12 3.67939 11.9298 3.80441 11.8048C3.92944 11.6798 3.99967 11.5102 3.99967 11.3334V7.90471C3.99967 7.7279 3.92944 7.55833 3.80441 7.4333C3.67939 7.30828 3.50982 7.23804 3.33301 7.23804H2.72767C3.09834 4.65804 5.31834 2.66671 7.99967 2.66671C10.681 2.66671 12.901 4.65804 13.2717 7.23804H12.6663C12.4895 7.23804 12.32 7.30828 12.1949 7.4333C12.0699 7.55833 11.9997 7.7279 11.9997 7.90471V12C11.9997 12.7354 11.4017 13.3334 10.6663 13.3334H9.33301V12.6667H6.66634V14.6667H10.6663C12.137 14.6667 13.333 13.4707 13.333 12C14.0683 12 14.6663 11.4447 14.6663 10.762V8.00004C14.6663 4.32404 11.6757 1.33337 7.99967 1.33337Z" fill="#FCFAFA"/>
</svg>